HIERARCHY
ROOT Hips
{
    OFFSET 0.000000 0.000000 0.000000
    CHANNELS 6 Xposition Yposition Zposition Zrotation Xrotation Yrotation
    JOINT Spine
    {
        OFFSET -0.000000 7.305679 0.000000
        CHANNELS 3 Zrotation Xrotation Yrotation
        JOINT Spine1
        {
            OFFSET -0.000000 20.356625 0.000000
            CHANNELS 3 Zrotation Xrotation Yrotation
            JOINT Neck
            {
                OFFSET -0.000000 22.138498 0.000000
                CHANNELS 3 Zrotation Xrotation Yrotation
                JOINT Head
                {
                    OFFSET -0.000000 13.809516 1.781873
                    CHANNELS 3 Zrotation Xrotation Yrotation
                    End Site
                    {
                        OFFSET -0.000000 17.818729 0.000000
                    }
                }
            }
            JOINT LeftShoulder
            {
                OFFSET 3.599131 17.989975 0.023592
                CHANNELS 3 Zrotation Xrotation Yrotation
                JOINT LeftArm
                {
                    OFFSET 12.560995 0.000000 0.000000
                    CHANNELS 3 Zrotation Xrotation Yrotation
                    JOINT LeftForeArm
                    {
                        OFFSET 22.903347 0.000000 0.000000
                        CHANNELS 3 Zrotation Xrotation Yrotation
                        JOINT LeftHand
                        {
                            OFFSET 21.865294 0.000000 0.000000
                            CHANNELS 3 Zrotation Xrotation Yrotation
                            JOINT LeftHandThumb1
                            {
                                OFFSET 1.853706 -2.106484 2.949078
                                CHANNELS 3 Zrotation Xrotation Yrotation
                                JOINT LeftHandThumb2
                                {
                                    OFFSET 2.049154 0.000000 1.336405
                                    CHANNELS 3 Zrotation Xrotation Yrotation
                                    JOINT LeftHandThumb3
                                    {
                                        OFFSET 2.672809 0.000000 0.000000
                                        CHANNELS 3 Zrotation Xrotation Yrotation
                                        End Site
                                        {
                                            OFFSET 2.381303 0.000000 0.000000
                                        }
                                    }
                                }
                            }
                            JOINT LeftHandIndex1
                            {
                                OFFSET 7.583345 0.000000 2.949078
                                CHANNELS 3 Zrotation Xrotation Yrotation
                                JOINT LeftHandIndex2
                                {
                                    OFFSET 4.454682 0.000000 0.000000
                                    CHANNELS 3 Zrotation Xrotation Yrotation
                                    JOINT LeftHandIndex3
                                    {
                                        OFFSET 2.227341 0.000000 0.000000
                                        CHANNELS 3 Zrotation Xrotation Yrotation
                                        End Site
                                        {
                                            OFFSET 1.984419 0.000000 0.000000
                                        }
                                    }
                                }
                            }
                            JOINT LeftHandMiddle1
                            {
                                OFFSET 7.583345 0.000000 0.977409
                                CHANNELS 3 Zrotation Xrotation Yrotation
                                JOINT LeftHandMiddle2
                                {
                                    OFFSET 4.900151 0.000000 0.000000
                                    CHANNELS 3 Zrotation Xrotation Yrotation
                                    JOINT LeftHandMiddle3
                                    {
                                        OFFSET 2.672809 0.000000 0.000000
                                        CHANNELS 3 Zrotation Xrotation Yrotation
                                        End Site
                                        {
                                            OFFSET 2.381303 0.000000 0.000000
                                        }
                                    }
                                }
                            }
                            JOINT LeftHandRing1
                            {
                                OFFSET 7.162047 0.000000 -0.977409
                                CHANNELS 3 Zrotation Xrotation Yrotation
                                JOINT LeftHandRing2
                                {
                                    OFFSET 4.454682 0.000000 0.000000
                                    CHANNELS 3 Zrotation Xrotation Yrotation
                                    JOINT LeftHandRing3
                                    {
                                        OFFSET 2.227341 0.000000 0.000000
                                        CHANNELS 3 Zrotation Xrotation Yrotation
                                        End Site
                                        {
                                            OFFSET 1.984419 0.000000 0.000000
                                        }
                                    }
                                }
                            }
                            JOINT LeftHandPinky1
                            {
                                OFFSET 6.740750 0.000000 -2.949078
                                CHANNELS 3 Zrotation Xrotation Yrotation
                                JOINT LeftHandPinky2
                                {
                                    OFFSET 3.563746 0.000000 0.000000
                                    CHANNELS 3 Zrotation Xrotation Yrotation
                                    JOINT LeftHandPinky3
                                    {
                                        OFFSET 1.781873 0.000000 0.000000
                                        CHANNELS 3 Zrotation Xrotation Yrotation
                                        End Site
                                        {
                                            OFFSET 1.587536 0.000000 0.000000
                                        }
                                    }
                                }
                            }
                        }
                    }
                }
            }
            JOINT RightShoulder
            {
                OFFSET -3.506995 17.989975 0.023592
                CHANNELS 3 Zrotation Xrotation Yrotation
                JOINT RightArm
                {
                    OFFSET -12.560995 0.000000 0.000000
                    CHANNELS 3 Zrotation Xrotation Yrotation
                    JOINT RightForeArm
                    {
                        OFFSET -22.903347 0.000000 0.000000
                        CHANNELS 3 Zrotation Xrotation Yrotation
                        JOINT RightHand
                        {
                            OFFSET -21.865294 0.000000 0.000000
                            CHANNELS 3 Zrotation Xrotation Yrotation
                            JOINT RightHandThumb1
                            {
                                OFFSET -1.853706 -2.106484 2.949078
                                CHANNELS 3 Zrotation Xrotation Yrotation
                                JOINT RightHandThumb2
                                {
                                    OFFSET -2.049154 0.000000 1.336405
                                    CHANNELS 3 Zrotation Xrotation Yrotation
                                    JOINT RightHandThumb3
                                    {
                                        OFFSET -2.672809 0.000000 0.000000
                                        CHANNELS 3 Zrotation Xrotation Yrotation
                                        End Site
                                        {
                                            OFFSET -2.381303 0.000000 0.000000
                                        }
                                    }
                                }
                            }
                            JOINT RightHandIndex1
                            {
                                OFFSET -7.583345 0.000000 2.949078
                                CHANNELS 3 Zrotation Xrotation Yrotation
                                JOINT RightHandIndex2
                                {
                                    OFFSET -4.454682 0.000000 0.000000
                                    CHANNELS 3 Zrotation Xrotation Yrotation
                                    JOINT RightHandIndex3
                                    {
                                        OFFSET -2.227341 0.000000 0.000000
                                        CHANNELS 3 Zrotation Xrotation Yrotation
                                        End Site
                                        {
                                            OFFSET -1.984419 0.000000 0.000000
                                        }
                                    }
                                }
                            }
                            JOINT RightHandMiddle1
                            {
                                OFFSET -7.583345 0.000000 0.977409
                                CHANNELS 3 Zrotation Xrotation Yrotation
                                JOINT RightHandMiddle2
                                {
                                    OFFSET -4.900151 0.000000 0.000000
                                    CHANNELS 3 Zrotation Xrotation Yrotation
                                    JOINT RightHandMiddle3
                                    {
                                        OFFSET -2.672809 0.000000 0.000000
                                        CHANNELS 3 Zrotation Xrotation Yrotation
                                        End Site
                                        {
                                            OFFSET -2.381303 0.000000 0.000000
                                        }
                                    }
                                }
                            }
                            JOINT RightHandRing1
                            {
                                OFFSET -7.162047 0.000000 -0.977409
                                CHANNELS 3 Zrotation Xrotation Yrotation
                                JOINT RightHandRing2
                                {
                                    OFFSET -4.454682 0.000000 0.000000
                                    CHANNELS 3 Zrotation Xrotation Yrotation
                                    JOINT RightHandRing3
                                    {
                                        OFFSET -2.227341 0.000000 0.000000
                                        CHANNELS 3 Zrotation Xrotation Yrotation
                                        End Site
                                        {
                                            OFFSET -1.984419 0.000000 0.000000
                                        }
                                    }
                                }
                            }
                            JOINT RightHandPinky1
                            {
                                OFFSET -6.740750 0.000000 -2.949078
                                CHANNELS 3 Zrotation Xrotation Yrotation
                                JOINT RightHandPinky2
                                {
                                    OFFSET -3.563746 0.000000 0.000000
                                    CHANNELS 3 Zrotation Xrotation Yrotation
                                    JOINT RightHandPinky3
                                    {
                                        OFFSET -1.781873 0.000000 0.000000
                                        CHANNELS 3 Zrotation Xrotation Yrotation
                                        End Site
                                        {
                                            OFFSET -1.587536 0.000000 0.000000
                                        }
                                    }
                                }
                            }
                        }
                    }
                }
            }
        }
    }
    JOINT LeftUpLeg
    {
        OFFSET 8.909365 0.000000 0.000000
        CHANNELS 3 Zrotation Xrotation Yrotation
        JOINT LeftLeg
        {
            OFFSET -0.000000 -38.765560 0.000000
            CHANNELS 3 Zrotation Xrotation Yrotation
            JOINT LeftFoot
            {
                OFFSET -0.000000 -35.244961 0.000000
                CHANNELS 3 Zrotation Xrotation Yrotation
                JOINT LeftToeBase
                {
                    OFFSET -0.000000 -5.791087 13.364048
                    CHANNELS 3 Zrotation Xrotation Yrotation
                    End Site
                    {
                        OFFSET -0.000000 0.000000 3.563746
                    }
                }
            }
        }
    }
    JOINT RightUpLeg
    {
        OFFSET -8.909365 0.000000 0.000000
        CHANNELS 3 Zrotation Xrotation Yrotation
        JOINT RightLeg
        {
            OFFSET -0.000000 -38.765560 0.000000
            CHANNELS 3 Zrotation Xrotation Yrotation
            JOINT RightFoot
            {
                OFFSET -0.000000 -35.244961 0.000000
                CHANNELS 3 Zrotation Xrotation Yrotation
                JOINT RightToeBase
                {
                    OFFSET -0.000000 -5.791087 13.364048
                    CHANNELS 3 Zrotation Xrotation Yrotation
                    End Site
                    {
                        OFFSET -0.000000 0.000000 3.563746
                    }
                }
            }
        }
    }
}
MOTION
Frames:    4
Frame Time:    0.008333
-4.620801    49.008591    105.925385    -3.607064    -5.307803    -13.677321    1.853351    10.018268    -2.070357    -9.565469    9.737539    0.169295    26.506433    -7.527255    2.793101    -14.602559    1.088916    6.690109    11.679440    6.325504    -23.581039    -95.497421    54.935719    3.907775    10.199113    40.981178    -3.540220    2.875878    -11.291412    -2.140226    -2.666703    2.001356    -0.921678    0.000000    0.000000    0.000000    0.000000    0.000000    0.000000    -20.370945    6.345581    -16.575886    -42.592457    0.000000    0.000000    -21.296228    0.000000    0.000000    -28.912582    2.461961    -7.334579    -58.041355    0.000000    0.000000    -29.020672    0.000000    0.000000    -36.725269    -2.694219    1.233394    -73.490250    0.000000    0.000000    -36.745117    0.000000    0.000000    -43.957893    -9.117638    9.332218    -89.407272    0.000000    0.000000    -44.703636    0.000000    0.000000    -25.162073    -14.577246    -11.347497    -25.791054    -20.005318    35.559013    -28.848375    -16.633286    13.589807    -4.409696    -29.946514    8.045063    7.402003    5.181072    -4.288725    0.000000    0.000000    -6.435699    0.000000    0.000000    -12.871398    29.915792    0.000000    -0.000000    59.831585    0.000000    -0.000000    29.915792    0.000000    -0.000000    45.342056    -4.020111    -2.208919    76.387169    0.000000    -0.000000    45.485626    0.000000    -0.000000    60.729626    -8.482012    -3.275758    92.942734    0.000000    -0.000000    61.055450    0.000000    -0.000000    76.740501    -13.202342    -3.080619    110.000000    0.000000    -0.000000    77.097092    0.000000    -0.000000    24.660425    -35.973778    11.152271    -153.143707    57.664612    159.923248    -24.270424    -51.613716    -14.866291    -0.107693    -6.843926    -0.663365    -10.420729    -43.910217    5.060474    154.955566    60.120590    -157.042297    19.669022    -50.000973    21.569279    -0.768608    -7.358255    0.464007    
-4.455475    48.898663    105.986618    -3.631216    -5.022376    -14.119184    2.065566    9.834799    -1.933044    -9.278972    9.413715    0.169019    26.425920    -7.288482    2.723464    -15.219563    0.966214    6.741250    11.754635    6.483213    -23.472851    -95.372917    54.389336    3.968995    10.463857    40.049255    -3.860596    2.550757    -11.516277    -2.041765    -2.627708    2.016975    -0.851747    0.000000    0.000000    0.000000    0.000000    0.000000    0.000000    -20.613298    6.454535    -16.639511    -43.116333    0.000000    0.000000    -21.558167    0.000000    0.000000    -29.097780    2.535607    -7.392732    -58.422661    0.000000    0.000000    -29.211325    0.000000    0.000000    -36.847198    -2.647104    1.179932    -73.728981    0.000000    0.000000    -36.864494    0.000000    0.000000    -44.009804    -9.088875    9.286979    -89.499130    0.000000    0.000000    -44.749565    0.000000    0.000000    -25.179483    -14.681326    -11.301258    -25.841238    -19.759064    35.855572    -29.211584    -16.343887    13.826094    -4.341686    -29.828833    8.146867    7.423392    5.177548    -4.268628    0.000000    0.000000    -6.413815    0.000000    0.000000    -12.827633    29.942286    0.000000    -0.000000    59.884571    0.000000    -0.000000    29.942286    0.000000    -0.000000    45.370529    -4.013522    -2.202601    76.422661    0.000000    -0.000000    45.513493    0.000000    -0.000000    60.760403    -8.467434    -3.264892    92.960762    0.000000    -0.000000    61.084698    0.000000    -0.000000    76.773346    -13.178579    -3.067302    110.000000    0.000000    -0.000000    77.127754    0.000000    -0.000000    26.323442    -35.616711    12.960055    -153.103256    57.138416    159.458908    -23.780931    -51.238125    -15.634061    -0.093908    -7.382961    -0.790494    -12.741110    -44.130928    2.253808    155.703033    60.129036    -157.103363    18.978487    -49.629890    22.637396    -0.799174    -7.368485    0.514176    
-4.292531    48.779068    106.056061    -3.648457    -4.738604    -14.487567    2.287805    9.663301    -1.811246    -9.001346    9.049039    0.162850    26.344450    -7.016424    2.619083    -15.815044    0.819639    6.756753    11.817255    6.657060    -23.359859    -95.254868    53.776100    4.018977    10.627311    38.971203    -4.056534    2.145918    -11.830862    -1.911687    -2.673046    2.106639    -0.797192    -0.000000    0.000000    0.052944    -0.000000    0.000000    0.105888    -20.927547    6.586590    -16.696562    -43.790279    0.000000    0.000000    -21.895140    0.000000    0.000000    -29.358566    2.606050    -7.429993    -58.954430    0.000000    0.000000    -29.477215    0.000000    0.000000    -37.043045    -2.631356    1.157631    -74.118584    0.000000    0.000000    -37.059292    0.000000    0.000000    -44.129230    -9.121032    9.280877    -89.742256    0.000000    0.000000    -44.871128    0.000000    0.000000    -25.172178    -14.755193    -11.258830    -25.887989    -19.520622    36.097107    -29.572546    -16.058111    14.036677    -4.291073    -29.763441    8.228277    7.443004    5.174403    -4.250347    0.000000    0.000000    -6.393899    0.000000    0.000000    -12.787799    29.965586    0.000000    -0.000000    59.931171    0.000000    -0.000000    29.965586    0.000000    -0.000000    45.399021    -4.010354    -2.197837    76.453903    0.000000    -0.000000    45.541618    0.000000    -0.000000    60.794395    -8.460045    -3.255930    92.976585    0.000000    -0.000000    61.117657    0.000000    -0.000000    76.813072    -13.165828    -3.054873    110.000000    0.000000    -0.000000    77.165695    0.000000    -0.000000    28.094696    -35.190151    14.874703    -153.102554    56.580090    159.048843    -23.231054    -50.784786    -16.523743    -0.084347    -7.958763    -0.915113    -15.330873    -44.233566    -0.751232    156.305832    60.078377    -156.929169    18.320444    -49.169327    23.840202    -0.829354    -7.378757    0.563702    
-4.133998    48.648720    106.134727    -3.663508    -4.458690    -14.776154    2.516490    9.500327    -1.710008    -8.719133    8.654082    0.149013    26.253347    -6.721413    2.483171    -16.388659    0.658123    6.737489    11.867248    6.844991    -23.244015    -95.146095    53.118496    4.061885    10.722539    37.869205    -4.168689    1.695788    -12.213955    -1.759649    -2.789955    2.254228    -0.761450    -0.000000    0.000000    0.110475    -0.000000    0.000000    0.220950    -21.295467    6.740167    -16.757103    -44.578632    0.000000    0.000000    -22.289316    0.000000    0.000000    -29.682133    2.670021    -7.448242    -59.610523    0.000000    0.000000    -29.805273    0.000000    0.000000    -37.304279    -2.653763    1.172108    -74.642441    0.000000    0.000000    -37.321213    0.000000    0.000000    -44.310734    -9.225973    9.326616    -90.129837    0.000000    0.000000    -45.064919    0.000000    0.000000    -25.148273    -14.807146    -11.224963    -25.924969    -19.302841    36.295414    -29.913580    -15.783305    14.220761    -4.246805    -29.741199    8.288020    7.459753    5.171329    -4.233990    0.000000    0.000000    -6.375862    0.000000    0.000000    -12.751723    29.984541    0.000000    -0.000000    59.969082    0.000000    -0.000000    29.984541    0.000000    -0.000000    45.425346    -4.009508    -2.194322    76.479286    0.000000    -0.000000    45.567780    0.000000    -0.000000    60.828419    -8.457592    -3.248644    92.989487    0.000000    -0.000000    61.151016    0.000000    -0.000000    76.855286    -13.160707    -3.043599    110.000000    0.000000    -0.000000    77.206467    0.000000    -0.000000    29.932940    -34.689171    16.824926    -153.131088    55.997265    158.686447    -22.665071    -50.271065    -17.567514    -0.080177    -8.554344    -1.031098    -18.128250    -44.182522    -3.855875    156.691147    59.963566    -156.457001    17.735247    -48.636631    25.175146    -0.857623    -7.385069    0.610475    
